<?xml version="1.0" encoding="UTF-8"?>
<svg xmlns="http://www.w3.org/2000/svg" version="1.1" viewBox="0 0 1000 1000">
  <defs>
    <style>
      .cls-1 {
        fill: #fff;
      }
    </style>
  </defs>
  <!-- Generator: Adobe Illustrator 28.7.1, SVG Export Plug-In . SVG Version: 1.2.0 Build 142)  -->
  <g>
    <g id="_Слой_1" data-name="Слой_1">
      <g>
        <path class="cls-1" d="M1000,316.96v27.88c-1.69,53.69-13.11,104.27-32.13,149.07-16.21,38.17-39.83,72.75-69.15,102.08h0s-158.59,158.59-158.59,158.59c-3.23,3.23-8.74.94-8.74-3.62v-438.13c0-4.56-5.52-6.85-8.74-3.62l-46.35,46.35c-15.6,15.6-24.37,36.77-24.37,58.84v426.28c0,1.36-.54,2.66-1.5,3.62l-91.03,91.03c-3.23,3.23-8.74.94-8.74-3.62V372.44c0-22.07,8.77-43.23,24.37-58.84l76.9-76.9,79.47-79.47,92.54-92.54c3.23-3.23,8.74-.94,8.74,3.62v454.88c40.3-45.4,66.05-114.67,66.05-192.29V75.03c0-4.72,5.83-6.92,8.97-3.39,8.18,9.2,15.93,18.99,23.18,29.33,40.9,58.16,66.53,133.38,69.14,215.99Z"/>
        <path class="cls-1" d="M0,316.96v27.88c1.69,53.69,13.11,104.27,32.13,149.07,16.21,38.17,39.83,72.75,69.15,102.08h0s158.59,158.59,158.59,158.59c3.23,3.23,8.74.94,8.74-3.62v-438.13c0-4.56,5.52-6.85,8.74-3.62l46.35,46.35c15.6,15.6,24.37,36.77,24.37,58.84v426.28c0,1.36.54,2.66,1.5,3.62l91.03,91.03c3.23,3.23,8.74.94,8.74-3.62V372.44c0-22.07-8.77-43.23-24.37-58.84l-76.9-76.9-79.47-79.47-92.54-92.54c-3.23-3.23-8.74-.94-8.74,3.62v454.88c-40.3-45.4-66.05-114.67-66.05-192.29V75.03c0-4.72-5.83-6.92-8.97-3.39-8.18,9.2-15.93,18.99-23.18,29.33C28.24,159.13,2.6,234.36,0,316.96Z"/>
      </g>
    </g>
  </g>
</svg>